<?xml version="1.0" standalone="no"?><!DOCTYPE svg PUBLIC "-//W3C//DTD SVG 1.1//EN" "http://www.w3.org/Graphics/SVG/1.1/DTD/svg11.dtd"><svg t="1614923982311" class="icon" viewBox="0 0 1024 1024" version="1.1" xmlns="http://www.w3.org/2000/svg" p-id="3856" xmlns:xlink="http://www.w3.org/1999/xlink" width="200" height="200"><defs><style type="text/css"></style></defs><path d="M170.666667 213.333333v597.333334h682.666666V213.333333H170.666667zM128 128h768a42.666667 42.666667 0 0 1 42.666667 42.666667v682.666666a42.666667 42.666667 0 0 1-42.666667 42.666667H128a42.666667 42.666667 0 0 1-42.666667-42.666667V170.666667a42.666667 42.666667 0 0 1 42.666667-42.666667z m192 352h85.333333V384H469.333333v256H405.333333v-96h-85.333333V640H256V384h64v96zM693.333333 640v64h-64V640H597.333333a42.666667 42.666667 0 0 1-42.666666-42.666667v-170.666666a42.666667 42.666667 0 0 1 42.666666-42.666667h128a42.666667 42.666667 0 0 1 42.666667 42.666667v170.666666a42.666667 42.666667 0 0 1-42.666667 42.666667h-32z m-74.666666-192v128h85.333333v-128h-85.333333z" p-id="3857" fill="#fe7d4d"></path></svg>